# xmcd
#
# Track frame offsets:
#	150
#	19518
#	33929
#	52603
#	68505
#	87132
#	101369
#	118267
#	142985
#	163460
#	181094
#	197639
#	209672
#	223087
#	241867
#
# Disc length: 3512 seconds
#
# Revision: 4
# Processed by: cddbd v1.5.1PL0 Copyright (c) Steve Scherf et al.
# Submitted via: dBpowerAMP V4.0
#
DISCID=c60db60f
DTITLE=Rick and Renner  - Só Nós Dois
DYEAR=2004
DGENRE=Sertanejo (BR)
TTITLE0=Eu Mereço
TTITLE1=Saudade desse Amor
TTITLE2=Agora é Assim
TTITLE3=Meu Bem não me Quer
TTITLE4=Bebedeira
TTITLE5=Mulher Difícil
TTITLE6=Amor Aventureiro
TTITLE7=Só Nós Dois
TTITLE8=Gostando Só
TTITLE9=Tô Abrindo as Portas do Meu Coração
TTITLE10=Brega Demais
TTITLE11=Pelejando
TTITLE12=Pinga de Goela Abaixo
TTITLE13=Doidinho por Você
TTITLE14=Mãe
EXTD=Pedro Eladio Pereira
EXTT0=
EXTT1=
EXTT2=
EXTT3=
EXTT4=
EXTT5=
EXTT6=
EXTT7=
EXTT8=
EXTT9=
EXTT10=
EXTT11=
EXTT12=
EXTT13=
EXTT14=
PLAYORDER=
